<svg width="32" height="33" viewBox="0 0 32 33" fill="none" xmlns="http://www.w3.org/2000/svg">
<path d="M23.3846 0.349609H8.61539C6.33119 0.352053 4.14126 1.26053 2.52609 2.8757C0.910918 4.49086 0.00244342 6.6808 0 8.96499V23.7342C0.00244342 26.0184 0.910918 28.2084 2.52609 29.8235C4.14126 31.4387 6.33119 32.3472 8.61539 32.3496H23.3846C25.6688 32.3472 27.8587 31.4387 29.4739 29.8235C31.0891 28.2084 31.9976 26.0184 32 23.7342V8.96499C31.9976 6.6808 31.0891 4.49086 29.4739 2.8757C27.8587 1.26053 25.6688 0.352053 23.3846 0.349609ZM16 23.7342C14.5395 23.7342 13.1117 23.3011 11.8973 22.4897C10.6829 21.6783 9.73643 20.5249 9.17751 19.1756C8.61858 17.8262 8.47234 16.3414 8.75728 14.9089C9.04222 13.4765 9.74553 12.1607 10.7783 11.1279C11.811 10.0951 13.1269 9.39182 14.5593 9.10689C15.9918 8.82195 17.4766 8.96819 18.826 9.52711C20.1753 10.086 21.3287 11.0325 22.1401 12.2469C22.9515 13.4613 23.3846 14.8891 23.3846 16.3496C23.3826 18.3075 22.6039 20.1846 21.2195 21.5691C19.835 22.9535 17.9579 23.7322 16 23.7342ZM25.2308 8.96499C24.8656 8.96499 24.5087 8.85672 24.2051 8.65386C23.9015 8.451 23.6649 8.16267 23.5251 7.82533C23.3854 7.48799 23.3489 7.11679 23.4201 6.75867C23.4913 6.40055 23.6672 6.0716 23.9253 5.81341C24.1835 5.55522 24.5125 5.37939 24.8706 5.30816C25.2287 5.23693 25.5999 5.27349 25.9373 5.41322C26.2746 5.55295 26.5629 5.78957 26.7658 6.09317C26.9686 6.39677 27.0769 6.75371 27.0769 7.11884C27.0769 7.60847 26.8824 8.07805 26.5362 8.42427C26.19 8.77049 25.7204 8.96499 25.2308 8.96499ZM20.9231 16.3496C20.9231 17.3233 20.6343 18.2751 20.0934 19.0847C19.5524 19.8943 18.7836 20.5253 17.884 20.8979C16.9844 21.2706 15.9945 21.368 15.0396 21.1781C14.0846 20.9881 13.2074 20.5193 12.5189 19.8307C11.8304 19.1422 11.3615 18.265 11.1715 17.3101C10.9816 16.3551 11.0791 15.3652 11.4517 14.4656C11.8243 13.5661 12.4553 12.7972 13.2649 12.2562C14.0745 11.7153 15.0263 11.4265 16 11.4265C17.3057 11.4265 18.5579 11.9452 19.4811 12.8685C20.4044 13.7917 20.9231 15.0439 20.9231 16.3496Z" fill="#C2C2C2"/>
</svg>
