<svg width="33" height="33" viewBox="0 0 33 33" fill="none" xmlns="http://www.w3.org/2000/svg">
<path d="M29.401 0.349609C30.344 0.349609 31.2483 0.724211 31.9151 1.39101C32.5819 2.0578 32.9565 2.96217 32.9565 3.90516V28.7941C32.9565 29.737 32.5819 30.6414 31.9151 31.3082C31.2483 31.975 30.344 32.3496 29.401 32.3496H4.5121C3.56911 32.3496 2.66474 31.975 1.99794 31.3082C1.33114 30.6414 0.956543 29.737 0.956543 28.7941V3.90516C0.956543 2.96217 1.33114 2.0578 1.99794 1.39101C2.66474 0.724211 3.56911 0.349609 4.5121 0.349609H29.401ZM28.5121 27.9052V18.4829C28.5121 16.9459 27.9015 15.4717 26.8146 14.3849C25.7277 13.298 24.2536 12.6874 22.7165 12.6874C21.2054 12.6874 19.4454 13.6118 18.5921 14.9985V13.0252H13.6321V27.9052H18.5921V19.1407C18.5921 17.7718 19.6943 16.6518 21.0632 16.6518C21.7233 16.6518 22.3564 16.9141 22.8231 17.3808C23.2899 17.8476 23.5521 18.4806 23.5521 19.1407V27.9052H28.5121ZM7.85432 10.2341C8.64643 10.2341 9.40611 9.91939 9.96621 9.35928C10.5263 8.79917 10.841 8.0395 10.841 7.24739C10.841 5.59405 9.50765 4.24294 7.85432 4.24294C7.05749 4.24294 6.2933 4.55948 5.72986 5.12292C5.16641 5.68637 4.84988 6.45056 4.84988 7.24739C4.84988 8.90072 6.20099 10.2341 7.85432 10.2341ZM10.3254 27.9052V13.0252H5.40099V27.9052H10.3254Z" fill="#C2C2C2"/>
</svg>
