<svg width="39" height="33" viewBox="0 0 39 33" fill="none" xmlns="http://www.w3.org/2000/svg">
<path fill-rule="evenodd" clip-rule="evenodd" d="M19.4783 0.349609C21.1437 0.349609 22.8519 0.39361 24.5075 0.46561L26.4632 0.561609L28.335 0.67561L30.0881 0.797609L31.6892 0.92561C33.4267 1.06216 35.0617 1.8235 36.3066 3.07569C37.5514 4.32787 38.3263 5.99069 38.4949 7.77161L38.5728 8.62161L38.7189 10.4416C38.8552 12.3276 38.9565 14.3836 38.9565 16.3496C38.9565 18.3156 38.8552 20.3716 38.7189 22.2576L38.5728 24.0776C38.5475 24.3696 38.5222 24.6516 38.4949 24.9276C38.3262 26.7088 37.551 28.3719 36.3058 29.6241C35.0606 30.8764 33.4251 31.6375 31.6872 31.7736L30.09 31.8996L28.337 32.0236L26.4632 32.1376L24.5075 32.2336C22.8321 32.3084 21.1553 32.347 19.4783 32.3496C17.8012 32.347 16.1244 32.3084 14.449 32.2336L12.4934 32.1376L10.6215 32.0236L8.86845 31.8996L7.26734 31.7736C5.52978 31.6371 3.89478 30.8757 2.64996 29.6235C1.40515 28.3713 0.630266 26.7085 0.461635 24.9276L0.383722 24.0776L0.237635 22.2576C0.0886992 20.2919 0.00943531 18.3212 0 16.3496C0 14.3836 0.101287 12.3276 0.237635 10.4416L0.383722 8.62161C0.409044 8.32961 0.434365 8.04761 0.461635 7.77161C0.630201 5.991 1.4048 4.32844 2.64922 3.0763C3.89364 1.82415 5.52818 1.06261 7.26539 0.92561L8.86456 0.797609L10.6176 0.67561L12.4914 0.561609L14.447 0.46561C16.1231 0.390875 17.8006 0.3522 19.4783 0.349609ZM15.5826 11.4996V21.1996C15.5826 22.1236 16.5565 22.6996 17.3357 22.2396L25.5165 17.3896C25.6945 17.2844 25.8424 17.1329 25.9452 16.9503C26.048 16.7677 26.1022 16.5605 26.1022 16.3496C26.1022 16.1387 26.048 15.9315 25.9452 15.7489C25.8424 15.5664 25.6945 15.4148 25.5165 15.3096L17.3357 10.4616C17.1579 10.3563 16.9563 10.3008 16.7511 10.3008C16.5459 10.3009 16.3443 10.3564 16.1666 10.4618C15.9889 10.5672 15.8414 10.7188 15.7389 10.9013C15.6364 11.0839 15.5825 11.2909 15.5826 11.5016V11.4996Z" fill="#C2C2C2"/>
</svg>
