<svg width="63" height="25" viewBox="0 0 63 25" fill="none" xmlns="http://www.w3.org/2000/svg">
<path d="M0.699219 0V1.68586H12.6899V0H0.699219ZM14.3887 0V1.68586H31.4759C31.4759 1.68586 29.7305 0 27.4189 0H14.3887ZM34.8279 0V1.68586H45.1654L44.5518 0H34.8279ZM52.5769 0L51.9633 1.68586H62.2069V0H52.5769ZM0.699219 3.2786V4.96446H12.6899V3.2786H0.699219ZM14.3887 3.28101V4.96446H33.4587C33.4587 4.96446 33.236 3.66698 32.8475 3.28101H14.3887ZM34.8279 3.28101V4.96446H46.2988L45.7309 3.28101H34.8279ZM51.3497 3.28101L50.7818 4.96446H62.2069V3.28101H51.3497ZM4.14506 6.5572V8.24522H9.33788V6.5572H4.14506ZM17.8346 6.5572V8.24522H23.0274V6.5572H17.8346ZM28.0782 6.5572V8.24522H33.271C33.271 8.24522 33.6007 7.35369 33.6007 6.55708H28.0782V6.5572ZM38.2738 6.5572V8.24522H47.4803L46.8667 6.55708H38.2738V6.5572ZM50.2187 6.5572L49.6027 8.24535H58.8549V6.5572H50.2187ZM4.14506 9.8382V11.5238H9.33788V9.8382H4.14506ZM17.8346 9.8382V11.5238H31.0981C31.0981 11.5238 32.2077 10.6588 32.5612 9.83796H17.8346V9.8382ZM38.2738 9.8382V11.5238H43.4666V10.5854L43.7962 11.5238H53.3084L53.6621 10.5854V11.5238H58.8549V9.8382H49.107L48.5896 11.2662L48.0699 9.8382H38.2738ZM4.14506 13.1166V14.8024H9.33788V13.1166H4.14506ZM17.8346 13.1166V14.8024H32.5612C32.2076 13.9843 31.0981 13.1166 31.0981 13.1166H17.8346ZM38.2738 13.1166V14.8024H43.4666V13.1166H38.2738ZM44.4099 13.1166L45.0379 14.8024H52.1702L52.767 13.1166H44.4099ZM53.6621 13.1166V14.8024H58.8549V13.1166H53.6621ZM4.14506 16.3952V18.081H9.33788V16.3952H4.14506ZM17.8346 16.3952V18.081H23.0274V16.3952H17.8346ZM28.0782 16.3952V18.081H33.6007C33.6007 17.2854 33.271 16.3952 33.271 16.3952H28.0782ZM38.2738 16.3952V18.081H43.4666V16.3952H38.2738ZM45.589 16.3952L46.1978 18.081H50.9791L51.5927 16.3952H45.589ZM53.6621 16.3952V18.081H58.8549V16.3952H53.6621ZM0.793065 19.6739V21.362H12.7837V19.6738H0.793065V19.6739ZM14.3887 19.6739V21.362H32.8475C33.236 20.9755 33.4587 19.6738 33.4587 19.6738H14.3887V19.6739ZM34.9218 19.6739V21.362H43.4666V19.6738H34.9218V19.6739ZM46.7705 19.6739L47.3961 21.362H49.8289L50.416 19.6738H46.7705V19.6739ZM53.6621 19.6739V21.362H62.3008V19.6738H53.6621V19.6739ZM0.793065 22.9548V24.6406H12.7837V22.9548H0.793065ZM14.3887 22.9548V24.6381H27.4189C29.7305 24.6381 31.4759 22.9546 31.4759 22.9546H14.3887V22.9548ZM34.9218 22.9548V24.6406H43.4666V22.9548H34.9218ZM47.9568 22.9548L48.5583 24.6357L48.6618 24.6381L49.273 22.9546H47.9568V22.9548ZM53.6621 22.9548V24.6406H62.3008V22.9548H53.6621Z" fill="white"/>
</svg>
